<?xml version="1.0" encoding="utf-8"?>
<!DOCTYPE svg PUBLIC "-//W3C//DTD SVG 1.1//EN" "http://www.w3.org/Graphics/SVG/1.1/DTD/svg11.dtd">
<svg xmlns="http://www.w3.org/2000/svg" xmlns:xlink="http://www.w3.org/1999/xlink" version="1.1" viewBox="0 0 512 512" enable-background="new 0 0 512 512" width="512px" height="512px">
  <g>
    <g>
      <g>
        <path d="m491.6,77.8l-78.3-62.4c-3.6-2.9-8.1-4.5-12.7-4.5h-289.1c-4.6,0-9.1,1.6-12.7,4.5l-80,63.7c-6.8,5.4-9.4,14.5-6.5,22.7 2.9,8.2 10.6,13.7 19.3,13.7h22.7v364.8c0,11.3 9.1,20.4 20.4,20.4h199.5c11.3,0 20.4-9.1 20.4-20.4v-100.8c0-21.4 14.2-38.8 31.7-38.8s31.7,17.4 31.7,38.8v100.8c0,11.3 9.1,20.4 20.4,20.4h59.1c11.3,0 20.4-9.1 20.4-20.4v-364.8h22.7c0.1,0 0.1,0 0.2,0 11.3,0 20.4-9.1 20.4-20.4-0.1-7.3-3.9-13.7-9.6-17.3zm-373-26.1h274.8l28.7,22.9h-332.2l28.7-22.9zm298.4,408.2h-18.3v-80.4c0-43.9-32.5-79.6-72.5-79.6-40,0-72.5,35.7-72.5,79.6v80.4h-158.7v-344.4h322v344.4z" fill="#FFFFFF"/>
        <path d="m148.5,209.6h51.5c11.3,0 20.4-9.1 20.4-20.4 0-11.3-9.1-20.4-20.4-20.4h-51.4c-11.3,0-20.4,9.1-20.4,20.4-0.1,11.3 9.1,20.4 20.3,20.4z" fill="#FFFFFF"/>
        <path d="m286.1,222.2h16.4v21.4c0,11.3 9.1,20.4 20.4,20.4 11.3,0 20.4-9.1 20.4-20.4v-21.4h16.4c11.3,0 20.4-9.1 20.4-20.4 0-11.3-9.1-20.4-20.4-20.4h-16.4v-21.4c0-11.3-9.1-20.4-20.4-20.4-11.3,0-20.4,9.1-20.4,20.4v21.4h-16.4c-11.3,0-20.4,9.1-20.4,20.4-5.68434e-14,11.3 9.2,20.4 20.4,20.4z" fill="#FFFFFF"/>
        <path d="m148.5,298.1h51.5c11.3,0 20.4-9.1 20.4-20.4 0-11.3-9.1-20.4-20.4-20.4h-51.4c-11.3,0-20.4,9.1-20.4,20.4-0.1,11.2 9.1,20.4 20.3,20.4z" fill="#FFFFFF"/>
        <path d="m148.5,386.5h51.5c11.3,0 20.4-9.1 20.4-20.4 0-11.3-9.1-20.4-20.4-20.4h-51.4c-11.3,0-20.4,9.1-20.4,20.4-0.1,11.2 9.1,20.4 20.3,20.4z" fill="#FFFFFF"/>
      </g>
    </g>
  </g>
</svg>
