<?xml version="1.0" encoding="utf-8"?>
<!DOCTYPE svg PUBLIC "-//W3C//DTD SVG 1.1//EN" "http://www.w3.org/Graphics/SVG/1.1/DTD/svg11.dtd">
<svg xmlns="http://www.w3.org/2000/svg" xmlns:xlink="http://www.w3.org/1999/xlink" version="1.1" viewBox="0 0 512 512" enable-background="new 0 0 512 512" width="512px" height="512px">
  <g>
    <path d="m490.7,45.9c-13.3-21.8-36.9-34.9-63.1-34.9-11.2,0-20.3,9.1-20.3,20.3s9.1,20.3 20.3,20.3c11.9,0 22.5,5.8 28.4,15.4 5.3,8.6 5.7,18.7 1.4,27.7l-65.8,107.3c-0.3,0.4-0.5,0.9-0.8,1.3-5.5,10.8-16.5,17.3-29.3,17.3-0.1,0-0.1,0-0.2,0-12.7,0-23.6-6.4-29.3-17-0.2-0.4-0.5-0.9-0.8-1.3l-67.4-107.2c-4.5-9-4.1-19.1 1.1-27.9 5.9-9.8 16.5-15.6 28.5-15.6 11.2,0 20.3-9.1 20.3-20.3s-9-20.3-20.2-20.3c-26.4,0-50,13.2-63.3,35.3-12.7,21.1-13.4,46.7-1.9,68.4 0.2,0.4 0.5,0.9 0.8,1.3l67.5,107.5c9.4,17.4 25.4,29.8 44.2,35.1v142.7c0,13.7-19.9,29-48.4,29-28.5,0-48.4-15.3-48.4-29v-163.1c0-39.1-39.1-69.7-89.1-69.7-50,0-89.1,30.6-89.1,69.7v119.4c-31.7,8.8-54.8,37-54.8,70.3 0,40.3 33.8,73.1 75.3,73.1 41.5,0 75.3-32.8 75.3-73.1 0-33.6-23.5-62-55.5-70.5v-119.2c0-13.7 19.9-29 48.4-29 28.5,0 48.4,15.3 48.4,29v164.2c0,0.5 0,1.1 0.1,1.6 1.8,37.7 40.3,66.9 89,66.9 50,0 89.1-30.6 89.1-69.7v-142.4c19.3-5.3 35.8-18.1 45.3-36l65.9-107.4c0.3-0.4 0.5-0.9 0.8-1.3 11.3-21.9 10.4-47.3-2.4-68.2zm-369.7,382c0,17.9-15.6,32.4-34.7,32.4-19.1,0-34.7-14.6-34.7-32.4 0-17.9 15.6-32.4 34.7-32.4 19.2,0 34.7,14.5 34.7,32.4z" fill="#FFFFFF"/>
  </g>
</svg>
