<?xml version="1.0" encoding="iso-8859-1"?>
<!-- Generator: Adobe Illustrator 18.1.1, SVG Export Plug-In . SVG Version: 6.00 Build 0)  -->
<svg xmlns="http://www.w3.org/2000/svg" xmlns:xlink="http://www.w3.org/1999/xlink" version="1.1" id="Capa_1" x="0px" y="0px" viewBox="0 0 356.495 356.495" style="enable-background:new 0 0 356.495 356.495;" xml:space="preserve" width="512px" height="512px">
<g>
	<g id="Layer_5_38_">
		<g>
			<path d="M214.386,117.285H196.68c0,0-3.229,0.175-3.229-2.319c0-4.654,0-18.615,0-18.615c0-8.396-6.807-15.204-15.204-15.204     s-15.204,6.808-15.204,15.204c0,0,0,13.07,0,17.427c0,3.682-3.78,3.507-3.78,3.507h-17.154c-8.397,0-15.204,6.807-15.204,15.203     s6.807,15.204,15.204,15.204h17.629c0,0,3.305-0.301,3.305,3.264c0,4.417,0,17.671,0,17.671c0,8.396,6.807,15.204,15.204,15.204     s15.204-6.807,15.204-15.204c0,0,0-13.432,0-17.91c0-2.969,3.822-3.025,3.822-3.025h17.112c8.397,0,15.204-6.808,15.204-15.204     S222.783,117.285,214.386,117.285z" fill="#FFFFFF"/>
			<path d="M335.006,16.583H21.49C9.64,16.583,0,26.224,0,38.073v225.868c0,11.85,9.641,21.49,21.49,21.49h112.476     c0,0,5.129-0.387,5.129,4.613c0,5.163,0,13.25,0,17.667c0,2.75-3.015,2.986-3.015,2.986H97.796     c-8.068,0-14.608,6.541-14.608,14.608s6.54,14.608,14.608,14.608h160.905c8.067,0,14.608-6.541,14.608-14.608     s-6.541-14.608-14.608-14.608h-37.246c0,0-4.054-0.111-4.054-2.986c0-4.417,0-12.503,0-17.667c0-4.833,4.161-4.613,4.161-4.613     h113.443c11.85,0,21.49-9.64,21.49-21.49V38.073C356.496,26.224,346.855,16.583,335.006,16.583z M178.248,265.946     c-7.583,0-13.732-6.148-13.732-13.732c0-7.584,6.148-13.732,13.732-13.732c7.584,0,13.732,6.147,13.732,13.732     C191.98,259.798,185.832,265.946,178.248,265.946z M331.496,216.96c0,7.75-8.041,7.538-8.041,7.538H31.704     c0,0-6.704,0.962-6.704-7.038c0-41.438,0-122.553,0-165.75c0-10.5,9.455-10.127,9.455-10.127h288.999     c0,0,8.042-0.123,8.042,9.627C331.496,88.25,331.496,188.628,331.496,216.96z" fill="#FFFFFF"/>
		</g>
	</g>
</g>
<g>
</g>
<g>
</g>
<g>
</g>
<g>
</g>
<g>
</g>
<g>
</g>
<g>
</g>
<g>
</g>
<g>
</g>
<g>
</g>
<g>
</g>
<g>
</g>
<g>
</g>
<g>
</g>
<g>
</g>
</svg>
