<?xml version="1.0" encoding="utf-8"?>
<!DOCTYPE svg PUBLIC "-//W3C//DTD SVG 1.1//EN" "http://www.w3.org/Graphics/SVG/1.1/DTD/svg11.dtd">
<svg xmlns="http://www.w3.org/2000/svg" xmlns:xlink="http://www.w3.org/1999/xlink" version="1.1" viewBox="0 0 512 512" enable-background="new 0 0 512 512" width="512px" height="512px">
  <g>
    <g>
      <g>
        <path d="M480.7,78.1H380.3V31.2c0-11.3-9.1-20.4-20.4-20.4H152.3c-11.3,0-20.4,9.1-20.4,20.4v46.8H31.5     c-11.3,0-20.4,9.1-20.4,20.4v381.9c0,11.3,9.1,20.4,20.4,20.4h449.2c11.3,0,20.4-9.1,20.4-20.4V98.5     C501.1,87.2,492,78.1,480.7,78.1z M172.7,51.7h166.8v26.4H172.7V51.7z M460.3,460H52V118.9h408.3V460z" fill="#FFFFFF"/>
        <path d="m256.1,152c-77.8,0-141,61.6-141,137.4s63.3,137.4 141,137.4 141-61.6 141-137.4-63.2-137.4-141-137.4zm0,234c-55.2,0-100.2-43.3-100.2-96.6 0-53.3 44.9-96.6 100.2-96.6 55.2,0 100.2,43.3 100.2,96.6 0,53.3-44.9,96.6-100.2,96.6z" fill="#FFFFFF"/>
        <path d="m304.2,269h-27.7v-26.2c0-11.3-9.1-20.4-20.4-20.4-11.3,0-20.4,9.1-20.4,20.4v26.2h-27.7c-11.3,0-20.4,9.1-20.4,20.4 0,11.3 9.1,20.4 20.4,20.4h27.7v26.2c0,11.3 9.1,20.4 20.4,20.4 11.3,0 20.4-9.1 20.4-20.4v-26.2h27.7c11.3,0 20.4-9.1 20.4-20.4 1.13687e-13-11.2-9.1-20.4-20.4-20.4z" fill="#FFFFFF"/>
      </g>
    </g>
  </g>
</svg>
