<?xml version="1.0" encoding="iso-8859-1"?>
<!-- Generator: Adobe Illustrator 17.1.0, SVG Export Plug-In . SVG Version: 6.00 Build 0)  -->
<!DOCTYPE svg PUBLIC "-//W3C//DTD SVG 1.1//EN" "http://www.w3.org/Graphics/SVG/1.1/DTD/svg11.dtd">
<svg xmlns="http://www.w3.org/2000/svg" xmlns:xlink="http://www.w3.org/1999/xlink" version="1.1" id="Capa_1" x="0px" y="0px" viewBox="0 0 428.018 428.018" style="enable-background:new 0 0 428.018 428.018;" xml:space="preserve" width="512px" height="512px">
<path d="M143.356,159.274c18.697,0,36.254-7.537,49.437-21.222c11.371-11.804,24.635-33.626,23.253-70.552  c-0.957-25.575-13.385-43.617-30.124-54.636c-0.564-0.459-5.232-3.179-6.975-4.076c-8.749-4.497-18.309-7.308-27.831-8.485  c-2.477-0.306-11.867-0.393-13.754-0.2C105.335,3.384,72.253,25.11,70.664,67.5c-1.381,36.926,11.883,58.748,23.254,70.552  C107.101,151.737,124.659,159.274,143.356,159.274z M90.651,68.248c1.204-32.143,27.278-47.508,52.705-48.533  c8.373,0.337,16.811,2.241,24.413,5.775c-7.441,19.19-26.439,27.88-42.951,29.543c-5.495,0.553-9.501,5.456-8.948,10.951  c0.519,5.155,4.865,8.999,9.938,8.999c0.335,0,0.673-0.017,1.014-0.051c26.512-2.669,47.376-16.547,57.484-37.351  c6.807,7.644,11.274,17.809,11.755,30.666c0.886,23.668-5.225,43.008-17.672,55.929c-9.378,9.736-21.82,15.098-35.033,15.098  c-13.213,0-25.655-5.362-35.033-15.098C95.876,111.255,89.765,91.915,90.651,68.248z M185.613,257.018c0,5.523-4.477,10-10,10  h-19.506c-5.523,0-10-4.477-10-10c0-5.523,4.477-10,10-10h19.506C181.136,247.018,185.613,251.495,185.613,257.018z   M386.842,278.018h-35.889v-5.679c0-5.523-4.479-10-10.001-9.999s-9.999,4.478-9.999,10.001v5.677h-54v-5.678  c0-5.523-4.478-10-10-10s-10,4.477-10,10v5.678h-35.901c-5.522,0-10.099,4.922-10.099,10.445v129.553  c0,5.523,4.576,10.002,10.099,10.002h165.79c5.522,0,10.111-4.479,10.111-10.002V288.463  C396.953,282.94,392.365,278.018,386.842,278.018z M376.953,408.018h-146v-110h26v6.568c0,5.523,4.478,10,10,10s10-4.477,10-10  v-6.568h54v6.569c0,5.523,4.479,10,10.001,9.999s9.999-4.478,9.999-10.001v-6.567h26V408.018z M351.402,379.584  c0,5.523-4.477,10-10,10l-74.912,0.002c-5.522,0-10-4.477-10-10c0-5.523,4.477-10,10-10l74.912-0.002  C346.924,369.584,351.402,374.061,351.402,379.584z M351.402,342.018c0,5.523-4.478,10-10,10H266.49c-5.522,0-10-4.477-10-10  s4.478-10,10-10h74.912C346.924,332.018,351.402,336.495,351.402,342.018z M210.113,240.162  c-10.584-30.6-44.619-42.098-73.666-39.917c-26.025,1.954-55.975,15.599-61.982,48.037L53.087,363.693l106.921-0.002  c5.522,0,10,4.477,10,10c0,5.523-4.477,10-10,10l-118.944,0.002c-2.971,0-5.788-1.321-7.688-3.605s-2.686-5.295-2.145-8.216  L54.8,244.639c6.654-35.928,38.116-61.182,80.151-64.338c19.755-1.483,39.66,2.336,56.043,10.756  c18.536,9.525,31.683,24.245,38.02,42.567c1.806,5.219-0.962,10.914-6.182,12.719C217.613,248.15,211.918,245.381,210.113,240.162z" fill="#FFFFFF"/>
<g>
</g>
<g>
</g>
<g>
</g>
<g>
</g>
<g>
</g>
<g>
</g>
<g>
</g>
<g>
</g>
<g>
</g>
<g>
</g>
<g>
</g>
<g>
</g>
<g>
</g>
<g>
</g>
<g>
</g>
</svg>
